<svg xmlns="http://www.w3.org/2000/svg" version="1.1" xmlns:xlink="http://www.w3.org/1999/xlink" width="1000" height="1000"><style>
    #light-icon {
      display: inline;
    }
    #dark-icon {
      display: none;
    }

    @media (prefers-color-scheme: dark) {
      #light-icon {
        display: none;
      }
      #dark-icon {
        display: inline;
      }
    }
  </style><g id="light-icon"><svg xmlns="http://www.w3.org/2000/svg" version="1.1" xmlns:xlink="http://www.w3.org/1999/xlink" width="1000" height="1000"><g clip-path="url(#SvgjsClipPath1323)"><rect width="1000" height="1000" fill="#ffffff"></rect><g transform="matrix(33.333333333333336,0,0,33.333333333333336,100,100)"><svg xmlns="http://www.w3.org/2000/svg" version="1.1" xmlns:xlink="http://www.w3.org/1999/xlink" width="24" height="24"><svg xmlns="http://www.w3.org/2000/svg" width="24" height="24" viewBox="0 0 24 24" fill="none" stroke="currentColor" stroke-width="2" stroke-linecap="round" stroke-linejoin="round" class="lucide lucide-hand-heart-icon lucide-hand-heart"><path d="M11 14h2a2 2 0 0 0 0-4h-3c-.6 0-1.1.2-1.4.6L3 16"></path><path d="m14.45 13.39 5.05-4.694C20.196 8 21 6.85 21 5.75a2.75 2.75 0 0 0-4.797-1.837.276.276 0 0 1-.406 0A2.75 2.75 0 0 0 11 5.75c0 1.2.802 2.248 1.5 2.946L16 11.95"></path><path d="m2 15 6 6"></path><path d="m7 20 1.6-1.4c.3-.4.8-.6 1.4-.6h4c1.1 0 2.1-.4 2.8-1.2l4.6-4.4a1 1 0 0 0-2.75-2.91"></path></svg></svg></g></g><defs><clipPath id="SvgjsClipPath1323"><rect width="1000" height="1000" x="0" y="0" rx="0" ry="0"></rect></clipPath></defs></svg></g><g id="dark-icon"><svg xmlns="http://www.w3.org/2000/svg" version="1.1" xmlns:xlink="http://www.w3.org/1999/xlink" width="1000" height="1000"><g clip-path="url(#SvgjsClipPath1324)"><rect width="1000" height="1000" fill="#ffffff"></rect><g transform="matrix(33.333333333333336,0,0,33.333333333333336,100,100)"><svg xmlns="http://www.w3.org/2000/svg" version="1.1" xmlns:xlink="http://www.w3.org/1999/xlink" width="24" height="24"><svg xmlns="http://www.w3.org/2000/svg" width="24" height="24" viewBox="0 0 24 24" fill="none" stroke="currentColor" stroke-width="2" stroke-linecap="round" stroke-linejoin="round" class="lucide lucide-hand-heart-icon lucide-hand-heart"><path d="M11 14h2a2 2 0 0 0 0-4h-3c-.6 0-1.1.2-1.4.6L3 16"></path><path d="m14.45 13.39 5.05-4.694C20.196 8 21 6.85 21 5.75a2.75 2.75 0 0 0-4.797-1.837.276.276 0 0 1-.406 0A2.75 2.75 0 0 0 11 5.75c0 1.2.802 2.248 1.5 2.946L16 11.95"></path><path d="m2 15 6 6"></path><path d="m7 20 1.6-1.4c.3-.4.8-.6 1.4-.6h4c1.1 0 2.1-.4 2.8-1.2l4.6-4.4a1 1 0 0 0-2.75-2.91"></path></svg></svg></g></g><defs><clipPath id="SvgjsClipPath1324"><rect width="1000" height="1000" x="0" y="0" rx="0" ry="0"></rect></clipPath></defs></svg></g></svg>